<svg width="16" height="11" viewBox="0 0 16 11" fill="none" xmlns="http://www.w3.org/2000/svg">
<path d="M0 5.3C0 4.66966 0.124156 4.04548 0.365378 3.46312C0.606601 2.88076 0.960166 2.35161 1.40589 1.90589C2.30606 1.00571 3.52696 0.5 4.8 0.5H5C5.26522 0.5 5.51957 0.605357 5.70711 0.792893C5.89464 0.98043 6 1.23478 6 1.5C6 1.76522 5.89464 2.01957 5.70711 2.20711C5.51957 2.39464 5.26522 2.5 5 2.5H4.8C4.05739 2.5 3.3452 2.795 2.8201 3.3201C2.295 3.8452 2 4.55739 2 5.3V5.7C2 6.44261 2.295 7.1548 2.8201 7.6799C3.3452 8.205 4.05739 8.5 4.8 8.5H5C5.26522 8.5 5.51957 8.60536 5.70711 8.79289C5.89464 8.98043 6 9.23478 6 9.5C6 9.76522 5.89464 10.0196 5.70711 10.2071C5.51957 10.3946 5.26522 10.5 5 10.5H4.8C3.52696 10.5 2.30606 9.99429 1.40589 9.09411C0.505713 8.19394 0 6.97304 0 5.7V5.3ZM16 5.3C16 4.66966 15.8758 4.04548 15.6346 3.46312C15.3934 2.88076 15.0398 2.35161 14.5941 1.90589C14.1484 1.46017 13.6192 1.1066 13.0369 0.865378C12.4545 0.624156 11.8303 0.5 11.2 0.5H11C10.7348 0.5 10.4804 0.605357 10.2929 0.792893C10.1054 0.98043 10 1.23478 10 1.5C10 1.76522 10.1054 2.01957 10.2929 2.20711C10.4804 2.39464 10.7348 2.5 11 2.5H11.2C11.9426 2.5 12.6548 2.795 13.1799 3.3201C13.705 3.8452 14 4.55739 14 5.3V5.7C14 6.44261 13.705 7.1548 13.1799 7.6799C12.6548 8.205 11.9426 8.5 11.2 8.5H11C10.7348 8.5 10.4804 8.60536 10.2929 8.79289C10.1054 8.98043 10 9.23478 10 9.5C10 9.76522 10.1054 10.0196 10.2929 10.2071C10.4804 10.3946 10.7348 10.5 11 10.5H11.2C11.8303 10.5 12.4545 10.3758 13.0369 10.1346C13.6192 9.8934 14.1484 9.53983 14.5941 9.09411C15.0398 8.64839 15.3934 8.11924 15.6346 7.53688C15.8758 6.95452 16 6.33034 16 5.7V5.3ZM5 4.5C4.73478 4.5 4.48043 4.60536 4.29289 4.79289C4.10536 4.98043 4 5.23478 4 5.5C4 5.76522 4.10536 6.01957 4.29289 6.20711C4.48043 6.39464 4.73478 6.5 5 6.5H11C11.2652 6.5 11.5196 6.39464 11.7071 6.20711C11.8946 6.01957 12 5.76522 12 5.5C12 5.23478 11.8946 4.98043 11.7071 4.79289C11.5196 4.60536 11.2652 4.5 11 4.5H5Z" fill="#1970F3"/>
</svg>
