<svg width="678" height="323" viewBox="0 0 678 323" fill="none" xmlns="http://www.w3.org/2000/svg">
<g style="mix-blend-mode:overlay">
<line x1="1.42476" y1="0.254532" x2="1.42475" y2="322.719" stroke="black" stroke-width="1.41593"/>
<line x1="36.9721" y1="0.25444" x2="36.9721" y2="322.719" stroke="black" stroke-width="1.41593"/>
<line x1="72.519" y1="0.25444" x2="72.519" y2="322.719" stroke="black" stroke-width="1.41593"/>
<line x1="108.067" y1="0.25444" x2="108.067" y2="322.719" stroke="black" stroke-width="1.41593"/>
<line x1="143.614" y1="0.25444" x2="143.614" y2="322.719" stroke="black" stroke-width="1.41593"/>
<line x1="179.161" y1="0.25444" x2="179.161" y2="322.719" stroke="black" stroke-width="1.41593"/>
<line x1="214.709" y1="0.25444" x2="214.709" y2="322.719" stroke="black" stroke-width="1.41593"/>
<line x1="250.256" y1="0.25444" x2="250.256" y2="322.719" stroke="black" stroke-width="1.41593"/>
<line x1="285.803" y1="0.25444" x2="285.803" y2="322.719" stroke="black" stroke-width="1.41593"/>
<line x1="321.351" y1="0.25444" x2="321.351" y2="322.719" stroke="black" stroke-width="1.41593"/>
<line x1="356.897" y1="0.25444" x2="356.897" y2="322.719" stroke="black" stroke-width="1.41593"/>
<line x1="392.445" y1="0.25444" x2="392.445" y2="322.719" stroke="black" stroke-width="1.41593"/>
<line x1="427.992" y1="0.25444" x2="427.992" y2="322.719" stroke="black" stroke-width="1.41593"/>
<line x1="463.54" y1="0.25444" x2="463.539" y2="322.719" stroke="black" stroke-width="1.41593"/>
<line x1="499.086" y1="0.25444" x2="499.086" y2="322.719" stroke="black" stroke-width="1.41593"/>
<line x1="534.634" y1="0.25444" x2="534.634" y2="322.719" stroke="black" stroke-width="1.41593"/>
<line x1="570.182" y1="0.25444" x2="570.182" y2="322.719" stroke="black" stroke-width="1.41593"/>
<line x1="605.728" y1="0.25444" x2="605.728" y2="322.719" stroke="black" stroke-width="1.41593"/>
<line x1="641.276" y1="0.25444" x2="641.276" y2="322.719" stroke="black" stroke-width="1.41593"/>
<line x1="676.823" y1="0.25444" x2="676.823" y2="322.719" stroke="black" stroke-width="1.41593"/>
<line x1="1.14014" y1="320.742" x2="675.692" y2="320.742" stroke="black" stroke-width="1.41593"/>
<line x1="1.14014" y1="285.195" x2="675.692" y2="285.195" stroke="black" stroke-width="1.41593"/>
<line x1="1.14014" y1="249.647" x2="675.692" y2="249.647" stroke="black" stroke-width="1.41593"/>
<line x1="1.14014" y1="214.1" x2="675.692" y2="214.1" stroke="black" stroke-width="1.41593"/>
<line x1="1.14014" y1="178.553" x2="675.692" y2="178.553" stroke="black" stroke-width="1.41593"/>
<line x1="1.14014" y1="143.005" x2="675.692" y2="143.005" stroke="black" stroke-width="1.41593"/>
<line x1="1.14014" y1="107.458" x2="675.692" y2="107.458" stroke="black" stroke-width="1.41593"/>
<line x1="1.14014" y1="71.9107" x2="675.692" y2="71.9107" stroke="black" stroke-width="1.41593"/>
<line x1="1.14014" y1="36.3634" x2="675.692" y2="36.3634" stroke="black" stroke-width="1.41593"/>
<line x1="1.14014" y1="0.816099" x2="675.692" y2="0.816128" stroke="black" stroke-width="1.41593"/>
</g>
</svg>
