<svg width="18" height="16" viewBox="0 0 18 16" fill="none" xmlns="http://www.w3.org/2000/svg">
<path d="M16.7087 8.00023H6.41283M2.77866 8.00023H1.29199M2.77866 8.00023C2.77866 7.51842 2.97006 7.05635 3.31075 6.71566C3.65144 6.37497 4.11352 6.18357 4.59533 6.18357C5.07714 6.18357 5.53921 6.37497 5.8799 6.71566C6.22059 7.05635 6.41199 7.51842 6.41199 8.00023C6.41199 8.48204 6.22059 8.94412 5.8799 9.28481C5.53921 9.6255 5.07714 9.8169 4.59533 9.8169C4.11352 9.8169 3.65144 9.6255 3.31075 9.28481C2.97006 8.94412 2.77866 8.48204 2.77866 8.00023ZM16.7087 13.5061H11.9187M11.9187 13.5061C11.9187 13.988 11.7268 14.4506 11.386 14.7914C11.0453 15.1321 10.5831 15.3236 10.1012 15.3236C9.61935 15.3236 9.15727 15.1313 8.81658 14.7906C8.47589 14.45 8.28449 13.9879 8.28449 13.5061M11.9187 13.5061C11.9187 13.0241 11.7268 12.5624 11.386 12.2216C11.0453 11.8808 10.5831 11.6894 10.1012 11.6894C9.61935 11.6894 9.15727 11.8808 8.81658 12.2215C8.47589 12.5622 8.28449 13.0243 8.28449 13.5061M8.28449 13.5061H1.29199M16.7087 2.4944H14.1212M10.487 2.4944H1.29199M10.487 2.4944C10.487 2.01259 10.6784 1.55051 11.0191 1.20982C11.3598 0.869133 11.8218 0.677734 12.3037 0.677734C12.5422 0.677734 12.7785 0.724724 12.9989 0.81602C13.2193 0.907316 13.4195 1.04113 13.5882 1.20982C13.7569 1.37852 13.8907 1.57878 13.982 1.79919C14.0733 2.0196 14.1203 2.25583 14.1203 2.4944C14.1203 2.73297 14.0733 2.9692 13.982 3.18961C13.8907 3.41002 13.7569 3.61028 13.5882 3.77898C13.4195 3.94767 13.2193 4.08149 12.9989 4.17278C12.7785 4.26408 12.5422 4.31107 12.3037 4.31107C11.8218 4.31107 11.3598 4.11967 11.0191 3.77898C10.6784 3.43829 10.487 2.97621 10.487 2.4944Z" stroke="#444444" stroke-width="1.25" stroke-miterlimit="10" stroke-linecap="round"/>
</svg>
