<svg width="46" height="50" viewBox="0 0 46 50" fill="none" xmlns="http://www.w3.org/2000/svg">
<path d="M44.3853 9.66321L23.4622 0.358592C23.3082 0.286169 23.1401 0.248619 22.9699 0.248619C22.7997 0.248619 22.6316 0.286169 22.4776 0.358592L1.5545 9.66321C1.33815 9.75759 1.15351 9.9122 1.02258 10.1086C0.891647 10.305 0.819952 10.5349 0.81604 10.7709V17.3678C0.81604 29.4786 8.05296 44.1494 22.5268 49.2201C22.8141 49.3177 23.1256 49.3177 23.413 49.2201C37.8868 44.1494 45.1237 29.4786 45.1237 17.3678V10.7709C45.1198 10.5349 45.0481 10.305 44.9172 10.1086C44.7863 9.9122 44.6016 9.75759 44.3853 9.66321ZM34.5096 17.8109L21.5127 34.3574C21.3237 34.5959 21.0867 34.792 20.817 34.9328C20.5472 35.0736 20.2508 35.156 19.9471 35.1746L19.8191 35.1795C19.2468 35.1785 18.6981 34.9511 18.293 34.5469L11.5976 27.8515C11.1938 27.4468 10.9673 26.8982 10.968 26.3264C10.9687 25.7547 11.1965 25.2067 11.6013 24.8029C12.006 24.3991 12.5546 24.1727 13.1263 24.1734C13.6981 24.174 14.2461 24.4018 14.6499 24.8066L19.6271 29.7838L31.1225 15.15C31.4819 14.7193 31.9949 14.4456 32.5528 14.387C33.1106 14.3284 33.6693 14.4894 34.1104 14.836C34.5514 15.1826 34.8401 15.6873 34.9151 16.2432C34.9901 16.7991 34.8455 17.3623 34.512 17.8134L34.5096 17.8109Z" fill="#0E4259"/>
</svg>
