<svg width="15" height="18" viewBox="0 0 15 18" fill="none" xmlns="http://www.w3.org/2000/svg">
<path d="M7.66051 0.910004C7.81678 0.753778 8.0287 0.666016 8.24967 0.666016C8.47064 0.666016 8.68257 0.753778 8.83884 0.910004L11.3388 3.41C11.4951 3.56628 11.5828 3.7782 11.5828 3.99917C11.5828 4.22014 11.4951 4.43206 11.3388 4.58834L8.83884 7.08834C8.68167 7.24014 8.47117 7.32413 8.25267 7.32223C8.03418 7.32033 7.82517 7.23269 7.67066 7.07819C7.51615 6.92368 7.42851 6.71467 7.42661 6.49617C7.42471 6.27767 7.50871 6.06717 7.66051 5.91L8.73801 4.8325H7.41634C4.45967 4.8325 1.99967 7.2925 1.99967 10.2492C1.99967 13.2058 4.45967 15.6658 7.41634 15.6658C10.373 15.6658 12.833 13.2058 12.833 10.2492C12.833 10.0282 12.9208 9.8162 13.0771 9.65991C13.2334 9.50363 13.4453 9.41584 13.6663 9.41584C13.8874 9.41584 14.0993 9.50363 14.2556 9.65991C14.4119 9.8162 14.4997 10.0282 14.4997 10.2492C14.4997 14.1258 11.293 17.3325 7.41634 17.3325C3.53967 17.3325 0.333008 14.1258 0.333008 10.2492C0.333008 6.3725 3.53967 3.16584 7.41634 3.16584H8.73801L7.66051 2.08834C7.50428 1.93206 7.41652 1.72014 7.41652 1.49917C7.41652 1.2782 7.50428 1.06628 7.66051 0.910004Z" fill="#444444"/>
</svg>
