<svg width="64" height="64" viewBox="0 0 64 64" fill="none" xmlns="http://www.w3.org/2000/svg">
<path d="M30.4934 14.4742C30.8087 14.4742 30.9675 14.2894 31.0475 13.9989C31.8652 9.59049 31.8134 9.48462 36.4065 8.61398C36.7218 8.56105 36.9077 8.37746 36.9077 8.05984C36.9077 7.74335 36.723 7.55863 36.4053 7.5057C31.8393 6.58212 31.9711 6.47625 31.0475 2.11969C30.9687 1.83023 30.8099 1.64552 30.4934 1.64552C30.1757 1.64552 30.0181 1.83023 29.9381 2.11969C29.0145 6.47625 29.1722 6.581 24.5802 7.5057C24.2897 7.55751 24.0779 7.74222 24.0779 8.05984C24.0779 8.37633 24.2897 8.56105 24.5791 8.61398C29.1733 9.53755 29.1204 9.59049 29.9381 13.9989C30.0169 14.2894 30.1769 14.4742 30.4934 14.4742ZM17.7165 32.6359C18.2177 32.6359 18.5613 32.3194 18.6142 31.8441C19.5637 24.7956 19.8013 24.7956 27.0874 23.3968C27.5627 23.3179 27.9062 23.0003 27.9062 22.4991C27.9062 22.0238 27.5627 21.6814 27.0874 21.6014C19.8013 20.599 19.5378 20.3614 18.6142 13.1812C18.5613 12.7059 18.2177 12.3623 17.7165 12.3623C17.2412 12.3623 16.8977 12.7059 16.8448 13.2071C15.9741 20.2814 15.6047 20.2555 8.37156 21.6014C7.89626 21.7073 7.55273 22.0238 7.55273 22.4991C7.55273 23.0273 7.89626 23.3179 8.47631 23.3968C15.6576 24.558 15.9741 24.7427 16.8448 31.7911C16.8977 32.3194 17.2412 32.6359 17.7165 32.6359ZM35.6136 61.859C36.3006 61.859 36.8018 61.3567 36.9336 60.6438C38.8078 46.1786 40.8407 43.9868 55.1482 42.4032C55.8871 42.3244 56.3894 41.7702 56.3894 41.0832C56.3894 40.3961 55.8871 39.869 55.1482 39.7631C40.8407 38.1795 38.8078 35.9889 36.9336 21.5226C36.8018 20.8096 36.3006 20.3343 35.6136 20.3343C34.9276 20.3343 34.4264 20.8096 34.3206 21.5226C32.4464 35.9889 30.3875 38.1795 16.1059 39.7631C15.34 39.869 14.8388 40.3972 14.8388 41.0832C14.8388 41.7702 15.34 42.3244 16.1059 42.4032C30.3605 44.2774 32.3405 46.2045 34.3206 60.6438C34.4264 61.3567 34.9276 61.859 35.6136 61.859Z" fill="#0E4259"/>
</svg>
