<svg width="22" height="20" viewBox="0 0 22 20" fill="none" xmlns="http://www.w3.org/2000/svg">
<path d="M14.7936 3.71319C14.7008 3.62036 14.6273 3.51017 14.5771 3.3889C14.5269 3.26764 14.5011 3.13768 14.5012 3.00644C14.5012 2.87521 14.5271 2.74526 14.5774 2.62403C14.6276 2.5028 14.7013 2.39266 14.7941 2.2999C14.8869 2.20713 14.9971 2.13356 15.1184 2.08338C15.2397 2.0332 15.3696 2.0074 15.5009 2.00744C15.6321 2.00749 15.762 2.03338 15.8833 2.08365C16.0045 2.13391 16.1146 2.20757 16.2074 2.3004L21.2002 7.30014C21.3872 7.48747 21.4922 7.74135 21.4922 8.00604C21.4922 8.27073 21.3872 8.52461 21.2002 8.71194L16.2074 13.7057C16.1146 13.7985 16.0045 13.8722 15.8833 13.9224C15.762 13.9727 15.6321 13.9986 15.5009 13.9986C15.3696 13.9987 15.2397 13.9729 15.1184 13.9227C14.9971 13.8725 14.8869 13.799 14.7941 13.7062C14.7013 13.6134 14.6276 13.5033 14.5774 13.3821C14.5271 13.2608 14.5012 13.1309 14.5012 12.9996C14.5011 12.8684 14.5269 12.7384 14.5771 12.6172C14.6273 12.4959 14.7008 12.3857 14.7936 12.2929L18.0848 9.00269H11.5004C9.42375 9.00267 7.42862 8.19444 5.93744 6.74914C4.44626 5.30384 3.57611 3.33493 3.51121 1.25928L3.50721 1.0095C3.50721 0.744504 3.61248 0.490366 3.79986 0.30299C3.98724 0.115613 4.24137 0.0103455 4.50636 0.0103455C4.77136 0.0103455 5.02549 0.115613 5.21287 0.30299C5.40025 0.490366 5.50551 0.744504 5.50551 1.0095C5.50546 2.56056 6.10657 4.05127 7.18255 5.16843C8.25854 6.28559 9.72563 6.94223 11.2756 7.0004L11.5004 7.00439H18.0808L14.7936 3.71319ZM7.50381 11.5006C7.50381 12.163 7.24064 12.7984 6.7722 13.2668C6.30376 13.7353 5.66842 13.9984 5.00594 13.9984C4.34346 13.9984 3.70812 13.7353 3.23968 13.2668C2.77123 12.7984 2.50806 12.163 2.50806 11.5006C2.50806 10.8381 2.77123 10.2027 3.23968 9.7343C3.70812 9.26586 4.34346 9.00269 5.00594 9.00269C5.66842 9.00269 6.30376 9.26586 6.7722 9.7343C7.24064 10.2027 7.50381 10.8381 7.50381 11.5006ZM9.50211 16.871C9.50211 18.4257 8.21721 19.9933 5.00594 19.9933C1.79467 19.9933 0.509766 18.4317 0.509766 16.871V16.7681C0.509766 15.7889 1.30309 14.9976 2.28126 14.9976H7.73062C8.70979 14.9976 9.50211 15.7899 9.50211 16.7681V16.871Z" fill="#557C8D"/>
</svg>
